<mxfile host="65bd71144e">
    <diagram id="JDqFRr98YrObUsfJNYBM" name="第 1 页">
        <mxGraphModel dx="661" dy="430" grid="1" gridSize="10" guides="1" tooltips="1" connect="1" arrows="1" fold="1" page="1" pageScale="1" pageWidth="827" pageHeight="1169" math="0" shadow="0">
            <root>
                <mxCell id="0"/>
                <mxCell id="1" parent="0"/>
                <mxCell id="38" value="&lt;font style=&quot;font-size: 19px;&quot; face=&quot;Times New Roman&quot;&gt;(a)&lt;/font&gt;" style="rounded=0;whiteSpace=wrap;html=1;container=1;verticalAlign=bottom;strokeColor=none;strokeWidth=1;fontFamily=Times New Roman;fontSize=19;fillColor=none;gradientColor=none;" vertex="1" parent="1">
                    <mxGeometry x="80" y="40" width="90" height="220" as="geometry">
                        <mxRectangle x="177" y="190" width="50" height="40" as="alternateBounds"/>
                    </mxGeometry>
                </mxCell>
                <mxCell id="39" value="" style="group" vertex="1" connectable="0" parent="38">
                    <mxGeometry x="15" width="60" height="200" as="geometry"/>
                </mxCell>
                <mxCell id="2" value="D" style="rounded=0;whiteSpace=wrap;html=1;fontFamily=Times New Roman;fontSize=19;container=0;" vertex="1" parent="39">
                    <mxGeometry x="10" y="30" width="40" height="40" as="geometry"/>
                </mxCell>
                <mxCell id="3" value="C" style="rounded=0;whiteSpace=wrap;html=1;fontFamily=Times New Roman;fontSize=19;container=0;" vertex="1" parent="39">
                    <mxGeometry x="10" y="70" width="40" height="40" as="geometry"/>
                </mxCell>
                <mxCell id="4" value="B" style="rounded=0;whiteSpace=wrap;html=1;fontFamily=Times New Roman;fontSize=19;container=0;" vertex="1" parent="39">
                    <mxGeometry x="10" y="110" width="40" height="40" as="geometry"/>
                </mxCell>
                <mxCell id="5" value="A" style="rounded=0;whiteSpace=wrap;html=1;fontFamily=Times New Roman;fontSize=19;container=0;" vertex="1" parent="39">
                    <mxGeometry x="10" y="150" width="40" height="40" as="geometry"/>
                </mxCell>
                <mxCell id="7" value="" style="line;strokeWidth=2;direction=south;html=1;fontFamily=Times New Roman;fontSize=19;perimeterSpacing=0;gradientColor=none;fillColor=none;container=0;" vertex="1" parent="39">
                    <mxGeometry width="20" height="190" as="geometry"/>
                </mxCell>
                <mxCell id="8" value="" style="line;strokeWidth=2;direction=south;html=1;fontFamily=Times New Roman;fontSize=19;container=0;" vertex="1" parent="39">
                    <mxGeometry x="40" width="20" height="190" as="geometry"/>
                </mxCell>
                <mxCell id="9" value="" style="line;strokeWidth=2;html=1;perimeter=backbonePerimeter;points=[];outlineConnect=0;fontFamily=Times New Roman;fontSize=19;fillColor=none;gradientColor=none;container=0;" vertex="1" parent="39">
                    <mxGeometry x="10" y="180" width="40" height="20" as="geometry"/>
                </mxCell>
                <mxCell id="40" value="&lt;font style=&quot;font-size: 19px;&quot; face=&quot;Times New Roman&quot;&gt;(b)&lt;/font&gt;" style="rounded=0;whiteSpace=wrap;html=1;container=1;verticalAlign=bottom;strokeColor=none;strokeWidth=1;fontFamily=Times New Roman;fontSize=19;fillColor=none;gradientColor=none;" vertex="1" parent="1">
                    <mxGeometry x="170" y="40" width="90" height="220" as="geometry">
                        <mxRectangle x="177" y="190" width="50" height="40" as="alternateBounds"/>
                    </mxGeometry>
                </mxCell>
                <mxCell id="43" value="" style="group" vertex="1" connectable="0" parent="40">
                    <mxGeometry x="15" width="60" height="200" as="geometry"/>
                </mxCell>
                <mxCell id="13" value="B" style="rounded=0;whiteSpace=wrap;html=1;fontFamily=Times New Roman;fontSize=19;container=0;" vertex="1" parent="43">
                    <mxGeometry x="10" y="110" width="40" height="40" as="geometry"/>
                </mxCell>
                <mxCell id="14" value="A" style="rounded=0;whiteSpace=wrap;html=1;fontFamily=Times New Roman;fontSize=19;container=0;" vertex="1" parent="43">
                    <mxGeometry x="10" y="150" width="40" height="40" as="geometry"/>
                </mxCell>
                <mxCell id="16" value="" style="line;strokeWidth=2;direction=south;html=1;fontFamily=Times New Roman;fontSize=19;perimeterSpacing=0;gradientColor=none;fillColor=none;container=0;" vertex="1" parent="43">
                    <mxGeometry width="20" height="190" as="geometry"/>
                </mxCell>
                <mxCell id="17" value="" style="line;strokeWidth=2;direction=south;html=1;fontFamily=Times New Roman;fontSize=19;container=0;" vertex="1" parent="43">
                    <mxGeometry x="40" width="20" height="190" as="geometry"/>
                </mxCell>
                <mxCell id="18" value="" style="line;strokeWidth=2;html=1;perimeter=backbonePerimeter;points=[];outlineConnect=0;fontFamily=Times New Roman;fontSize=19;fillColor=none;gradientColor=none;container=0;" vertex="1" parent="43">
                    <mxGeometry x="10" y="180" width="40" height="20" as="geometry"/>
                </mxCell>
                <mxCell id="41" value="&lt;font style=&quot;font-size: 19px;&quot; face=&quot;Times New Roman&quot;&gt;(c)&lt;/font&gt;" style="rounded=0;whiteSpace=wrap;html=1;container=1;verticalAlign=bottom;strokeColor=none;strokeWidth=1;fontFamily=Times New Roman;fontSize=19;fillColor=none;gradientColor=none;" vertex="1" parent="1">
                    <mxGeometry x="260" y="40" width="90" height="220" as="geometry">
                        <mxRectangle x="177" y="190" width="50" height="40" as="alternateBounds"/>
                    </mxGeometry>
                </mxCell>
                <mxCell id="44" value="" style="group" vertex="1" connectable="0" parent="41">
                    <mxGeometry x="15" width="60" height="200" as="geometry"/>
                </mxCell>
                <mxCell id="21" value="A" style="rounded=0;whiteSpace=wrap;html=1;fontFamily=Times New Roman;fontSize=19;container=0;" vertex="1" parent="44">
                    <mxGeometry x="10" y="150" width="40" height="40" as="geometry"/>
                </mxCell>
                <mxCell id="23" value="" style="line;strokeWidth=2;direction=south;html=1;fontFamily=Times New Roman;fontSize=19;perimeterSpacing=0;gradientColor=none;fillColor=none;container=0;" vertex="1" parent="44">
                    <mxGeometry width="20" height="190" as="geometry"/>
                </mxCell>
                <mxCell id="24" value="" style="line;strokeWidth=2;direction=south;html=1;fontFamily=Times New Roman;fontSize=19;container=0;" vertex="1" parent="44">
                    <mxGeometry x="40" width="20" height="190" as="geometry"/>
                </mxCell>
                <mxCell id="25" value="" style="line;strokeWidth=2;html=1;perimeter=backbonePerimeter;points=[];outlineConnect=0;fontFamily=Times New Roman;fontSize=19;fillColor=none;gradientColor=none;container=0;" vertex="1" parent="44">
                    <mxGeometry x="10" y="180" width="40" height="20" as="geometry"/>
                </mxCell>
                <mxCell id="42" value="&lt;font style=&quot;font-size: 19px;&quot; face=&quot;Times New Roman&quot;&gt;(d)&lt;/font&gt;" style="rounded=0;whiteSpace=wrap;html=1;container=1;verticalAlign=bottom;strokeColor=none;strokeWidth=1;fontFamily=Times New Roman;fontSize=19;fillColor=none;gradientColor=none;" vertex="1" parent="1">
                    <mxGeometry x="350" y="40" width="90" height="220" as="geometry">
                        <mxRectangle x="177" y="190" width="50" height="40" as="alternateBounds"/>
                    </mxGeometry>
                </mxCell>
                <mxCell id="45" value="" style="group" vertex="1" connectable="0" parent="42">
                    <mxGeometry x="15" width="60" height="200" as="geometry"/>
                </mxCell>
                <mxCell id="29" value="A" style="rounded=0;whiteSpace=wrap;html=1;fontFamily=Times New Roman;fontSize=19;container=0;" vertex="1" parent="45">
                    <mxGeometry x="10" y="150" width="40" height="40" as="geometry"/>
                </mxCell>
                <mxCell id="36" value="D" style="rounded=0;whiteSpace=wrap;html=1;fontFamily=Times New Roman;fontSize=19;container=0;" vertex="1" parent="45">
                    <mxGeometry x="10" y="70" width="40" height="40" as="geometry"/>
                </mxCell>
                <mxCell id="37" value="C" style="rounded=0;whiteSpace=wrap;html=1;fontFamily=Times New Roman;fontSize=19;container=0;" vertex="1" parent="45">
                    <mxGeometry x="10" y="110" width="40" height="40" as="geometry"/>
                </mxCell>
                <mxCell id="31" value="" style="line;strokeWidth=2;direction=south;html=1;fontFamily=Times New Roman;fontSize=19;perimeterSpacing=0;gradientColor=none;fillColor=none;container=0;" vertex="1" parent="45">
                    <mxGeometry width="20" height="190" as="geometry"/>
                </mxCell>
                <mxCell id="32" value="" style="line;strokeWidth=2;direction=south;html=1;fontFamily=Times New Roman;fontSize=19;container=0;" vertex="1" parent="45">
                    <mxGeometry x="40" width="20" height="190" as="geometry"/>
                </mxCell>
                <mxCell id="33" value="" style="line;strokeWidth=2;html=1;perimeter=backbonePerimeter;points=[];outlineConnect=0;fontFamily=Times New Roman;fontSize=19;fillColor=none;gradientColor=none;container=0;" vertex="1" parent="45">
                    <mxGeometry x="10" y="180" width="40" height="20" as="geometry"/>
                </mxCell>
            </root>
        </mxGraphModel>
    </diagram>
</mxfile>